<svg xmlns="http://www.w3.org/2000/svg" version="1.1" xmlns:xlink="http://www.w3.org/1999/xlink" width="512" height="512" x="0" y="0" viewBox="0 0 512 512" style="enable-background:new 0 0 512 512" xml:space="preserve" class=""><g><path d="m355.132 400.028 13.564-29.475a8 8 0 0 0-3.923-10.613l-29.07-13.377 11.625-25.261a20.06 20.06 0 0 0 .597-15.443 20.468 20.468 0 0 0-1.145-2.502L418.733 147l.236.108a39.512 39.512 0 0 0 16.554 3.637c15.047 0 29.47-8.584 36.161-23.125l22.661-49.242c4.161-9.043.189-19.786-8.854-23.948l-83.478-38.415c-9.042-4.161-19.786-.189-23.948 8.854l-22.66 49.242c-9.16 19.906-.418 43.553 19.487 52.714l.236.109-71.959 156.37c-5.948 1.326-11.241 5.292-13.981 11.243l-11.624 25.262-29.069-13.377a7.999 7.999 0 0 0-10.612 3.923l-13.564 29.475a123.694 123.694 0 0 0-10.41 66.842c.058.471.127.94.191 1.41-7.42.585-13.902 4.554-17.894 10.366-9.262-1.6-18.692-2.448-28.206-2.448v-54.244c0-38.77 14.706-75.737 40.821-103.78 5.798 1.762 15.26 3.968 26.309 3.968 12.2 0 26.335-2.692 39.589-11.642 31.417-21.217 44.474-69.356 45.015-71.395a7.999 7.999 0 0 0-6.747-9.989c-2.091-.259-51.623-6.131-83.042 15.085-28.368 19.158-31.636 52.752-31.984 62.184A168.158 168.158 0 0 0 168 290.097v-54.019c9.133-7.071 32-27.978 32-60.078 0-37.911-32.586-75.672-33.974-77.261a8 8 0 0 0-12.052 0C152.586 100.328 120 138.089 120 176c0 32.1 22.867 53.007 32 60.078v73.734a144.236 144.236 0 0 0-13.937-22.823c-.194-8.145-2.764-43.236-32.009-62.986-31.418-21.217-80.948-15.345-83.042-15.085a8 8 0 0 0-6.747 9.989c.541 2.039 13.598 50.178 45.015 71.395 13.256 8.951 27.388 11.642 39.589 11.642 10.574 0 19.696-2.021 25.543-3.739 6.647 9.208 12.102 19.286 16.142 30.057l9.635 25.694c-.12 2.592-.19 5.192-.19 7.8V416c-3.104 0-6.198.099-9.281.28C139.497 406.824 130.533 400 120 400a23.95 23.95 0 0 0-12 3.229A23.94 23.94 0 0 0 96 400c-10.812 0-19.976 7.185-22.969 17.031C63.186 420.024 56 429.188 56 440c0 1.983.246 3.909.702 5.753C41.862 455.95 28.594 468.541 17.6 483.2A8.001 8.001 0 0 0 24 496h272a8 8 0 0 0 6.4-12.799 161.73 161.73 0 0 0-16.679-18.919 122.574 122.574 0 0 0 25.414-12.867 123.69 123.69 0 0 0 43.997-51.387zM70.236 277.042c-18.908-12.769-30.419-38.935-35.476-52.926 14.859-.55 43.376.341 62.339 13.147 19.062 12.874 23.581 35.302 24.649 45.605-9.968 2.862-32.456 7.044-51.512-5.826zM238.9 197.263c18.902-12.766 47.455-13.668 62.334-13.136-5.06 13.998-16.568 40.15-35.471 52.915-19.062 12.87-41.557 8.686-51.512 5.828 1.071-10.317 5.593-32.738 24.649-45.607zM136 176c0-22.81 15.233-46.986 24-59.009 8.769 12.026 24 36.201 24 59.009 0 23-16.058 39.298-23.999 45.951C152.05 215.29 136 198.995 136 176zm233.94-95.201 22.66-49.242a2.057 2.057 0 0 1 2.724-1.007l83.477 38.415a2.058 2.058 0 0 1 1.008 2.725l-22.661 49.242c-5.472 11.892-19.602 17.112-31.49 11.642l-44.076-20.283c-11.892-5.473-17.114-19.6-11.642-31.492zm34.258 59.512-70.231 152.615-14.534-6.688 70.231-152.615zM216 424c2.317 0 4.446.969 5.996 2.728a7.997 7.997 0 0 0 6.003 2.713H228a8 8 0 0 0 6.003-2.712c1.551-1.76 3.68-2.729 5.997-2.729 4.411 0 8 3.589 8 8a8 8 0 0 0 8 8c4.411 0 8 3.589 8 8s-3.589 8-8 8-8-3.589-8-8a8 8 0 0 0-8-8c-2.317 0-4.446-.969-5.996-2.728a7.997 7.997 0 0 0-6.003-2.713H228a8 8 0 0 0-6.003 2.712c-1.551 1.76-3.68 2.729-5.997 2.729-4.411 0-8-3.589-8-8s3.589-8 8-8zm-136 8a8 8 0 0 0 8-8c0-4.411 3.589-8 8-8 2.317 0 4.446.969 5.996 2.728a8 8 0 0 0 12.008 0c1.55-1.759 3.679-2.728 5.996-2.728 4.411 0 8 3.589 8 8s-3.589 8-8 8c-2.317 0-4.446-.969-5.996-2.728a8 8 0 0 0-12.008 0C100.446 431.031 98.317 432 96 432a8 8 0 0 0-8 8c0 4.411-3.589 8-8 8s-8-3.589-8-8 3.589-8 8-8zm-38.833 48a151.705 151.705 0 0 1 24.338-20.887A23.875 23.875 0 0 0 80 464c10.814 0 19.981-7.189 22.972-17.041A24.04 24.04 0 0 0 108 444.77a23.94 23.94 0 0 0 12 3.229c10.312 0 19.125-6.538 22.514-15.686 3.149-.203 6.312-.313 9.486-.313h16c8.117 0 16.168.68 24.087 1.969C193.093 446.284 203.43 456 216 456c4.253 0 8.386-1.137 12-3.229a24.017 24.017 0 0 0 5.028 2.189C236.019 464.811 245.186 472 256 472c4.111 0 7.983-1.04 11.37-2.87 3.997 3.413 7.84 7.019 11.463 10.87zm238.793-30.652c.025-.446.04-.895.04-1.348 0-10.812-7.186-19.976-17.031-22.969C259.976 415.185 250.812 408 240 408c-3.278 0-6.482.682-9.435 1.95a107.708 107.708 0 0 1 8.288-63.431l10.22-22.208 29.069 13.377a8 8 0 0 0 10.612-3.923l14.969-32.528a4.194 4.194 0 0 1 5.56-2.056l21.455 9.873a4.163 4.163 0 0 1 2.179 2.354 4.157 4.157 0 0 1-.124 3.206l-14.969 32.529a8 8 0 0 0 3.923 10.612l29.069 13.377-10.22 22.208a107.695 107.695 0 0 1-38.309 44.744c-7.008 4.651-14.51 8.399-22.327 11.264z" fill="#000000" opacity="1" data-original="#000000" class=""></path><path d="m384.583 87.252 58.14 26.755a8.009 8.009 0 0 0 6.119.235 7.998 7.998 0 0 0 4.493-4.159l13.377-29.07a8 8 0 0 0-3.923-10.612L404.65 43.647a7.999 7.999 0 0 0-10.612 3.923L380.66 76.64a7.998 7.998 0 0 0 3.923 10.612zm20.646-25.725 43.604 20.066-6.688 14.535-43.605-20.066zM48 152c17.645 0 32-14.355 32-32 0-15.531-21.696-40.496-26.046-45.343a8 8 0 0 0-11.908 0c-.257.286-6.359 7.107-12.541 15.702C20.418 102.995 16 112.691 16 120c0 17.645 14.355 32 32 32zm0-59.651C58.021 104.801 64 115.875 64 120c0 8.822-7.178 16-16 16s-16-7.178-16-16c0-4.125 5.98-15.2 16-27.651zM272 152c17.645 0 32-14.355 32-32 0-15.531-21.696-40.496-26.046-45.343a8 8 0 0 0-11.908 0c-.257.286-6.359 7.107-12.541 15.702C244.418 102.995 240 112.691 240 120c0 17.645 14.355 32 32 32zm0-59.651c10.021 12.452 16 23.525 16 27.651 0 8.822-7.178 16-16 16s-16-7.178-16-16c0-4.125 5.98-15.2 16-27.651zM160 80c13.233 0 24-10.766 24-24 0-10.227-12.181-28.965-17.418-36.547a8 8 0 0 0-13.164 0C148.181 27.035 136 45.773 136 56c0 13.234 10.767 24 24 24zm0-41.17c4.605 7.76 7.932 14.728 8 17.176-.004 4.408-3.591 7.994-8 7.994-4.411 0-8-3.589-8-7.991.065-2.445 3.393-9.415 8-17.179zM495.799 486.217l-2.759-12.07C486.398 445.09 457.362 424 424 424c-19.093 0-36.76 6.916-49.633 18.271A46.589 46.589 0 0 0 360 440c-22.343 0-41.739 15.901-46.12 37.809l-1.725 8.622A8.001 8.001 0 0 0 320 496h168a8.003 8.003 0 0 0 7.799-9.783zm-140.839-12.07L353.622 480h-23.848c3.249-13.964 15.808-24 30.226-24 .843 0 1.677.047 2.505.115-3.486 5.523-6.07 11.58-7.545 18.032zM370.035 480l.522-2.287C375.553 455.86 398.028 440 424 440s48.447 15.86 53.442 37.713l.522 2.287z" fill="#000000" opacity="1" data-original="#000000" class=""></path></g></svg>