<svg xmlns="http://www.w3.org/2000/svg" version="1.1" xmlns:xlink="http://www.w3.org/1999/xlink" width="512" height="512" x="0" y="0" viewBox="0 0 611.771 611.771" style="enable-background:new 0 0 512 512" xml:space="preserve" class=""><g><path d="M229.571 611.771H38.313V0h387.763l96.574 96.783V216.66h-25.403V107.28l-81.878-81.667H63.926v560.755h165.645z" fill="#000000" opacity="1" data-original="#000000" class=""></path><path d="M509.843 127.435H395.215V12.806h25.403v89.226h89.225zM535.456 611.771H293.183c-20.994 0-38.209-17.215-38.209-38.209V280.483c0-20.994 17.215-38.209 38.209-38.209h242.063c20.994 0 38.209 17.215 38.209 38.209v293.079c.211 20.994-17.005 38.209-37.999 38.209zM293.183 267.676c-6.928 0-12.806 5.668-12.806 12.806v293.079c0 6.928 5.668 12.806 12.806 12.806h242.063c6.928 0 12.806-5.668 12.806-12.806V280.483c0-6.928-5.668-12.806-12.806-12.806l-242.063-.001z" fill="#000000" opacity="1" data-original="#000000" class=""></path><path d="M331.602 395.111H305.99V293.289h216.66v25.403H331.602zM305.99 407.917h216.66v25.403H305.99zM331.602 471.53H446.23v25.403H331.602zM305.99 535.352h216.66v25.403H305.99z" fill="#000000" opacity="1" data-original="#000000" class=""></path><path d="M369.812 420.724h25.403v114.628h-25.403zM305.99 420.724h25.403v114.628H305.99zM497.247 420.724h25.403v114.628h-25.403zM433.424 420.724h25.403v114.628h-25.403zM165.748 216.66h-25.403v-76.419h-25.403v76.419H89.329V114.838h76.419zM254.974 216.66h-25.403V76.629h-25.403V216.66h-25.613V51.016h76.419zM344.199 216.66h-25.403V114.838h-25.613V216.66H267.78V89.225h76.419zM89.329 254.87h127.435v25.403H89.329zM89.329 305.885h127.435v25.403H89.329zM89.329 356.901h89.225v25.403H89.329z" fill="#000000" opacity="1" data-original="#000000" class=""></path></g></svg>