<svg xmlns="http://www.w3.org/2000/svg" version="1.1" xmlns:xlink="http://www.w3.org/1999/xlink" width="512" height="512" x="0" y="0" viewBox="0 0 512 512" style="enable-background:new 0 0 512 512" xml:space="preserve" class=""><g><path d="M293.76 209.17h18.68v25.17c0 5.43 3.08 10.18 7.99 12.36 1.83.83 3.75 1.23 5.64 1.23 3.23 0 6.4-1.17 8.96-3.44l39.9-35.32h50.3c14.66 0 26.59-11.93 26.59-26.59v-81.01c0-14.66-11.93-26.59-26.59-26.59h-2.78c.55-3.39.85-7.07.85-11.14C423.3 28.64 394.68 0 359.49 0c-35.2 0-63.84 28.64-63.84 63.84 0 4.07.31 7.76.85 11.14h-2.75c-14.66 0-26.59 11.93-26.59 26.59v81.01c.01 14.66 11.94 26.59 26.6 26.59zm65.73-193.18c26.37 0 47.82 21.46 47.82 47.85 0 17.26-6.45 24.48-15.39 34.47-1.5 1.67-3.04 3.4-4.61 5.24-4.21 4.92-7.15 10.38-8.81 16.31h-11.02V78.32l15.21-15.2a7.991 7.991 0 0 0-11.3-11.3l-11.9 11.88-11.89-11.89a7.991 7.991 0 0 0-11.3 11.3l15.2 15.2v41.53h-11.03c-1.65-5.92-4.59-11.38-8.8-16.3-1.58-1.85-3.14-3.59-4.64-5.27-5.34-5.97-9.79-10.95-12.51-17.67-.1-.33-.23-.64-.37-.95-1.6-4.32-2.51-9.37-2.51-15.82 0-26.38 21.47-47.84 47.85-47.84zm-27.04 124.84a2.49 2.49 0 0 1 0-4.98H386.54a2.49 2.49 0 0 1 0 4.98zm44.48 15.99v3.49c0 1.87-1.6 3.46-3.49 3.46h-27.89c-1.89 0-3.49-1.58-3.49-3.46v-3.49zm-93.77-55.25c0-5.75 4.85-10.6 10.6-10.6h7.96c3.68 7.1 8.58 12.58 13.4 17.97 1.44 1.61 2.94 3.28 4.4 5 2.11 2.47 3.68 5.07 4.76 7.85-6.1 3.02-10.31 9.3-10.31 16.55 0 7.95 5.05 14.72 12.1 17.32v4.65c0 10.72 8.74 19.45 19.47 19.45h27.89c10.74 0 19.47-8.72 19.47-19.45v-4.64c7.05-2.61 12.1-9.38 12.1-17.32 0-7.25-4.21-13.53-10.31-16.55 1.09-2.78 2.66-5.39 4.77-7.85 1.45-1.7 2.93-3.36 4.37-4.96 4.82-5.4 9.73-10.89 13.41-18h7.98c5.75 0 10.6 4.85 10.6 10.6v81.01c0 5.85-4.76 10.6-10.6 10.6H374c-3.32 0-6.41 1.17-9.01 3.43l-36.57 32.38v-22.23c0-7.49-6.09-13.58-13.58-13.58h-21.09c-5.85 0-10.6-4.76-10.6-10.6v-81.03zm189.55 231.02h-27.5v-14.83c0-9.35-3.66-18.18-10.31-24.87-6.65-6.65-15.49-10.31-24.9-10.31h-64.63c-9.39 0-18.23 3.66-24.87 10.31-6.67 6.66-10.34 15.5-10.34 24.87v14.83H282.7c-8.16 0-15.18 4.9-18.31 11.9-8.02-3.83-16.71-6.91-25.22-9.91-7.79-2.74-15.84-5.57-22.9-8.86-9.15-4.27-14.61-12.85-14.61-22.95v-4.49c12.61-9.65 21.76-23.59 25.26-39.62h4.1c12.88 0 23.36-10.48 23.36-23.36v-19.56c0-.36-.01-.72-.03-1.07.01-4.46.09-8.82.17-13.03.63-34.03 1.23-66.21-44.36-71.58l6.01-8.51c3.03-4.39 3.39-9.84.96-14.57a14.092 14.092 0 0 0-12.58-7.66h-56.27c-22.07 0-42.83 7.05-58.45 19.85-17.08 14-26.48 33.98-26.48 56.26V235.3c0 12.88 10.48 23.36 23.36 23.36h4.08c3.54 16.2 12.84 30.27 25.66 39.92v4.18c0 10.09-5.46 18.67-14.6 22.94-7.07 3.29-15.13 6.12-22.92 8.86-27.99 9.84-59.71 20.99-59.71 59.05v104.26c0 7.78 6.33 14.12 14.12 14.12H284.75c.86 0 1.7-.08 2.54-.22.95.13 1.92.22 2.91.22h175c11.35 0 20.58-9 20.58-20.07v-80.08c4.3-3.71 7-9.17 7-15.19v-43.99c0-11.07-9.01-20.07-20.07-20.07zm-146.55-14.82c0-5.1 2.01-9.92 5.65-13.57 3.63-3.63 8.44-5.62 13.57-5.62h64.63c5.14 0 9.97 2 13.58 5.61 3.64 3.66 5.64 8.48 5.64 13.58v14.83h-7.06v-14.83c0-3.17-1.31-6.29-3.59-8.57a12.222 12.222 0 0 0-8.57-3.56h-64.63c-3.15 0-6.15 1.23-8.46 3.45-.04.03-.07.07-.11.1a12.222 12.222 0 0 0-3.56 8.57v14.83h-7.09zm80.02 3.85v10.97h-56.95v-10.97zm-203.17 14.82-4.24 34.21-23.11-21.67 19.3-19.9c2.31 2.78 5 5.24 8.05 7.36zm-41.9 20.81 16.15 15.15-7.9 19.6h-20.62l-7.92-19.61 16.15-15.15h4.14zm-30.19-43.1c.6-2.17 1.01-4.42 1.25-6.72a67.713 67.713 0 0 0 25.24 4.86h2.92c9.05 0 17.69-1.79 25.6-5.01.24 2.35.66 4.65 1.26 6.86l-26.3 27.11h-3.69zm107.48-78.84c0 4.06-3.31 7.37-7.37 7.37h-2.52v-34.3h2.52c4.06 0 7.37 3.31 7.37 7.37zm-149.19 7.37h-2.49c-4.06 0-7.37-3.31-7.37-7.37v-19.56c0-4.06 3.31-7.37 7.37-7.37h2.49zm2.12-50.29h-4.62c-2.58 0-5.05.43-7.37 1.2v-18.15c0-39.47 34.68-60.12 68.94-60.12h52.73l-5.73 8.11c-2.96 4.19-3.44 9.45-1.27 14.1 2.13 4.66 6.47 7.7 11.61 8.15 30.27 2.63 33.31 16.05 33.03 48-2.39-.83-4.95-1.28-7.62-1.28h-4.65c-4.1-9.67-13.7-16.47-24.86-16.47h-4.96c-3.83 0-6.97-.95-10.15-3.07l-8.5-5.7c-11.75-7.87-26.35-7.87-38.09 0l-8.49 5.69c-3.19 2.13-6.33 3.08-10.16 3.08h-4.96c-11.17-.01-20.77 6.79-24.88 16.46zm14.2 57.51c-.01-.06-.02-.11-.02-.17-.2-1.85-.31-3.73-.31-5.63v-41.22c0-6.05 4.93-10.97 11-10.97h4.96c6.99 0 13.21-1.89 19.05-5.77l8.5-5.7c6.36-4.26 13.95-4.26 20.3 0l8.52 5.71c5.82 3.88 12.04 5.76 19.03 5.76h4.96c6.06 0 11 4.92 11 10.97v41.22c0 1.91-.11 3.8-.31 5.66 0 .04-.01.08-.02.13-1.71 15.46-10.2 28.91-22.41 37.29-.33.19-.65.4-.96.63a51.82 51.82 0 0 1-28.49 8.5h-2.92c-10.38 0-20.06-3.06-28.2-8.3-.32-.24-.65-.46-1.01-.65-12.35-8.37-20.94-21.9-22.67-37.46zm17.61 79.19 19.28 19.89-23.1 21.66-4.22-34.21c3.04-2.11 5.74-4.58 8.04-7.34zm-5.66 153.48c-.19.87-.23 1.77-.12 2.65l1.33 10.78H92.73v-43.85c0-4.42-3.58-7.99-7.99-7.99s-7.99 3.58-7.99 7.99V496H35.21V393.62c0-24.93 18.52-33.24 49.03-43.96 5.19-1.82 10.49-3.69 15.67-5.74l5.46 44.3a8 8 0 0 0 7.93 7.02c2 0 3.96-.75 5.47-2.16l9.54-8.95 6.71 16.6zm65.83 13.44H134.8l-1.41-11.41 16.42-76.61h18.48l16.42 76.61zm50.04-51.85c-4.42 0-7.99 3.58-7.99 7.99V496h-25.94l1.33-10.78c.11-.89.07-1.78-.12-2.65l-17.54-81.85 6.68-16.59 9.54 8.94a8.01 8.01 0 0 0 5.47 2.16c.91 0 1.83-.16 2.72-.48a7.985 7.985 0 0 0 5.21-6.53l5.49-44.31c5.17 2.05 10.47 3.92 15.66 5.74 10.49 3.69 20.47 7.21 28.77 11.87v35.12c0 6.02 2.7 11.48 7 15.19v80.09c0 1.4.15 2.76.43 4.08h-28.72v-43.85c.01-4.41-3.57-7.99-7.99-7.99zm236.44 47.77c0 2.25-2.06 4.08-4.59 4.08H290.19c-2.52 0-4.56-1.83-4.56-4.08v-74.68l72.31 8.98v7.22c0 7.44 6.05 13.49 13.49 13.49h12.56c7.44 0 13.49-6.05 13.49-13.49v-7.22l72.31-8.98zm-95.87-60.98v-27.24h7.57v27.24zm102.87-34.3c0 2.09-1.52 3.8-3.59 4.06l-75.72 9.4v-8.9c0-7.44-6.05-13.49-13.49-13.49h-12.56c-7.44 0-13.49 6.05-13.49 13.49v8.9l-75.71-9.4c-2.09-.26-3.6-1.97-3.6-4.06v-43.99c0-2.25 1.83-4.08 4.08-4.08h190.01c2.25 0 4.08 1.83 4.08 4.08v43.99z" fill="#000000" opacity="1" data-original="#000000" class=""></path></g></svg>