<svg xmlns="http://www.w3.org/2000/svg" version="1.1" xmlns:xlink="http://www.w3.org/1999/xlink" width="512" height="512" x="0" y="0" viewBox="0 0 96 96" style="enable-background:new 0 0 512 512" xml:space="preserve" class=""><g><g data-name="5-Star Hotel"><path d="M95 31.67H70v-1.5h2a1 1 0 0 0 1-1v-4.41a1 1 0 0 0-1-1H24a1 1 0 0 0-1 1v4.41a1 1 0 0 0 1 1h2v1.5H1a1 1 0 0 0-1 1v4.42a1 1 0 0 0 1 1h1.25V95a1 1 0 0 0 1 1h89.5a1 1 0 0 0 1-1V38.09H95a1 1 0 0 0 1-1v-4.42a1 1 0 0 0-1-1zm-70-3.5v-2.41h46v2.41zm3 2h40v44.75H28zm59.5 46.75v3.17h-79v-3.17zM56.21 94h-2.63v-8.54a1 1 0 0 0-1-1h-9.16a1 1 0 0 0-1 1V94h-2.63V82.09h16.42zM2 36.09v-2.42h24v2.42zm2.25 2H26v36.83H7.5a1 1 0 0 0-1 1v5.17a1 1 0 0 0 1 1h2.05V94h-5.3zm7.3 44H34V94H11.55zM36 94V82.09h1.83V94zm8.46 0v-7.54h7.16V94zm13.79 0V82.09H60V94zM62 94V82.09h22.45V94zm29.71 0h-5.3V82.09h2a1 1 0 0 0 1-1v-5.17a1 1 0 0 0-1-1H70V38.09h21.75zM94 36.09H70v-2.42h24zM61.69 12.12l-.47 2.78a1.64 1.64 0 0 0 2.38 1.73l2.49-1.31c2.62 1.38 2.72 1.5 3.26 1.5A1.64 1.64 0 0 0 71 14.9l-.47-2.78 2-2a1.64 1.64 0 0 0-.91-2.8L68.81 7l-1.25-2.57a1.64 1.64 0 0 0-2.94 0L63.37 7l-2.79.4a1.65 1.65 0 0 0-.91 2.8zm2.16-3.21A1.66 1.66 0 0 0 65.08 8l1-2 1 2a1.66 1.66 0 0 0 1.23.9l2.26.32-1.57 1.6a1.65 1.65 0 0 0-.48 1.46l.39 2.24-2-1.06a1.63 1.63 0 0 0-1.52 0l-2 1.06.38-2.24a1.62 1.62 0 0 0-.47-1.46l-1.71-1.59zM43.6 8.61l-.47 2.78a1.64 1.64 0 0 0 2.38 1.73L48 11.81c2.62 1.38 2.72 1.5 3.26 1.5a1.64 1.64 0 0 0 1.61-1.92l-.47-2.78 2-2a1.64 1.64 0 0 0-.9-2.8l-2.79-.4L49.47.92a1.64 1.64 0 0 0-2.94 0l-1.25 2.53-2.79.4a1.64 1.64 0 0 0-.9 2.8zm2.16-3.21A1.66 1.66 0 0 0 47 4.5l1-2 1 2a1.66 1.66 0 0 0 1.23.9l2.26.33-1.62 1.58a1.65 1.65 0 0 0-.48 1.46l.39 2.23-2-1.06a1.63 1.63 0 0 0-1.52 0l-2 1.06.39-2.24a1.65 1.65 0 0 0-.48-1.46L43.5 5.73zM25.51 12.12 25 14.9a1.64 1.64 0 0 0 2.38 1.73l2.49-1.31c2.62 1.38 2.72 1.5 3.26 1.5a1.64 1.64 0 0 0 1.61-1.92l-.47-2.78 2-2a1.65 1.65 0 0 0-.91-2.8L32.63 7l-1.25-2.57a1.64 1.64 0 0 0-2.94 0L27.19 7l-2.79.4a1.64 1.64 0 0 0-.9 2.8zm2.16-3.21A1.66 1.66 0 0 0 28.9 8l1-2 1 2a1.66 1.66 0 0 0 1.23.9l2.26.32-1.63 1.59a1.65 1.65 0 0 0-.48 1.46l.39 2.24c-3.18-1.67-2.38-1.67-5.56 0l.39-2.24a1.65 1.65 0 0 0-.5-1.45l-1.59-1.59zM8.1 16.54l-.47 2.78A1.64 1.64 0 0 0 10 21.05l2.49-1.31c2.62 1.37 2.72 1.5 3.26 1.5a1.64 1.64 0 0 0 1.61-1.92l-.47-2.78 2-2a1.63 1.63 0 0 0-.9-2.79l-2.79-.41L14 8.85a1.64 1.64 0 0 0-2.94 0l-1.28 2.52-2.78.41a1.64 1.64 0 0 0-.91 2.79zm2.16-3.22a1.62 1.62 0 0 0 1.23-.89l1-2 1 2a1.62 1.62 0 0 0 1.23.89l2.26.33-1.63 1.59a1.64 1.64 0 0 0-.48 1.45l.39 2.25-2-1.06a1.63 1.63 0 0 0-1.52 0c-.1 0 .51-.27-2 1.06l.39-2.25a1.64 1.64 0 0 0-.48-1.45L8 13.65zM79.1 16.54l-.47 2.78A1.64 1.64 0 0 0 81 21.05l2.49-1.31c2.62 1.37 2.72 1.5 3.26 1.5a1.64 1.64 0 0 0 1.61-1.92l-.47-2.78 2-2a1.63 1.63 0 0 0-.9-2.79l-2.79-.41L85 8.85a1.64 1.64 0 0 0-2.94 0l-1.25 2.53-2.81.4a1.64 1.64 0 0 0-.91 2.79zm2.16-3.22a1.62 1.62 0 0 0 1.23-.89l1-2 1 2a1.62 1.62 0 0 0 1.23.89l2.26.33-1.63 1.59a1.64 1.64 0 0 0-.48 1.45l.39 2.25-2-1.06a1.63 1.63 0 0 0-1.52 0 14.49 14.49 0 0 0-2 1.06l.39-2.25a1.64 1.64 0 0 0-.48-1.45L79 13.65z" fill="#a8a200" opacity="1" data-original="#000000" class=""></path><path d="M31 72.92h34a1 1 0 0 0 1-1v-8.75a1 1 0 0 0-1-1H31a1 1 0 0 0-1 1v8.75a1 1 0 0 0 1 1zm1-8.75h32v6.75H32zM7.57 70.6h5.75a1 1 0 0 0 1-1v-5.75a1 1 0 0 0-1-1H7.57a1 1 0 0 0-1 1v5.75a1 1 0 0 0 1 1zm1-5.75h3.75v3.75H8.57zM16.93 70.6h5.75a1 1 0 0 0 1-1v-5.75a1 1 0 0 0-1-1h-5.75a1 1 0 0 0-1 1v5.75a1 1 0 0 0 1 1zm1-5.75h3.75v3.75h-3.75zM7.57 61.09h5.75a1 1 0 0 0 1-1v-5.75a1 1 0 0 0-1-1H7.57a1 1 0 0 0-1 1v5.75a1 1 0 0 0 1 1zm1-5.75h3.75v3.75H8.57zM16.93 61.09h5.75a1 1 0 0 0 1-1v-5.75a1 1 0 0 0-1-1h-5.75a1 1 0 0 0-1 1v5.75a1 1 0 0 0 1 1zm1-5.75h3.75v3.75h-3.75zM7.57 51.58h5.75a1 1 0 0 0 1-1v-5.75a1 1 0 0 0-1-1H7.57a1 1 0 0 0-1 1v5.75a1 1 0 0 0 1 1zm1-5.75h3.75v3.75H8.57zM16.93 51.58h5.75a1 1 0 0 0 1-1v-5.75a1 1 0 0 0-1-1h-5.75a1 1 0 0 0-1 1v5.75a1 1 0 0 0 1 1zm1-5.75h3.75v3.75h-3.75zM73.32 70.6h5.75a1 1 0 0 0 1-1v-5.75a1 1 0 0 0-1-1h-5.75a1 1 0 0 0-1 1v5.75a1 1 0 0 0 1 1zm1-5.75h3.75v3.75h-3.75zM82.68 70.6h5.75a1 1 0 0 0 1-1v-5.75a1 1 0 0 0-1-1h-5.75a1 1 0 0 0-1 1v5.75a1 1 0 0 0 1 1zm1-5.75h3.75v3.75h-3.75zM73.32 61.09h5.75a1 1 0 0 0 1-1v-5.75a1 1 0 0 0-1-1h-5.75a1 1 0 0 0-1 1v5.75a1 1 0 0 0 1 1zm1-5.75h3.75v3.75h-3.75zM82.68 61.09h5.75a1 1 0 0 0 1-1v-5.75a1 1 0 0 0-1-1h-5.75a1 1 0 0 0-1 1v5.75a1 1 0 0 0 1 1zm1-5.75h3.75v3.75h-3.75zM73.32 51.58h5.75a1 1 0 0 0 1-1v-5.75a1 1 0 0 0-1-1h-5.75a1 1 0 0 0-1 1v5.75a1 1 0 0 0 1 1zm1-5.75h3.75v3.75h-3.75zM82.68 51.58h5.75a1 1 0 0 0 1-1v-5.75a1 1 0 0 0-1-1h-5.75a1 1 0 0 0-1 1v5.75a1 1 0 0 0 1 1zm1-5.75h3.75v3.75h-3.75zM31.08 59.5h5.75a1 1 0 0 0 1-1v-5.75a1 1 0 0 0-1-1h-5.75a1 1 0 0 0-1 1v5.75a1 1 0 0 0 1 1zm1-5.75h3.75v3.75h-3.75zM40.44 59.5h5.75a1 1 0 0 0 1-1v-5.75a1 1 0 0 0-1-1h-5.75a1 1 0 0 0-1 1v5.75a1 1 0 0 0 1 1zm1-5.75h3.75v3.75h-3.75zM49.81 59.5h5.75a1 1 0 0 0 1-1v-5.75a1 1 0 0 0-1-1h-5.75a1 1 0 0 0-1 1v5.75a1 1 0 0 0 1 1zm1-5.75h3.75v3.75h-3.75zM59.17 59.5h5.75a1 1 0 0 0 1-1v-5.75a1 1 0 0 0-1-1h-5.75a1 1 0 0 0-1 1v5.75a1 1 0 0 0 1 1zm1-5.75h3.75v3.75h-3.75zM31.08 49.75h5.75a1 1 0 0 0 1-1V43a1 1 0 0 0-1-1h-5.75a1 1 0 0 0-1 1v5.75a1 1 0 0 0 1 1zm1-5.75h3.75v3.75h-3.75zM40.44 49.75h5.75a1 1 0 0 0 1-1V43a1 1 0 0 0-1-1h-5.75a1 1 0 0 0-1 1v5.75a1 1 0 0 0 1 1zm1-5.75h3.75v3.75h-3.75zM49.81 49.75h5.75a1 1 0 0 0 1-1V43a1 1 0 0 0-1-1h-5.75a1 1 0 0 0-1 1v5.75a1 1 0 0 0 1 1zm1-5.75h3.75v3.75h-3.75zM59.17 49.75h5.75a1 1 0 0 0 1-1V43a1 1 0 0 0-1-1h-5.75a1 1 0 0 0-1 1v5.75a1 1 0 0 0 1 1zm1-5.75h3.75v3.75h-3.75zM31.08 40h5.75a1 1 0 0 0 1-1v-5.75a1 1 0 0 0-1-1h-5.75a1 1 0 0 0-1 1V39a1 1 0 0 0 1 1zm1-5.75h3.75V38h-3.75zM40.44 40h5.75a1 1 0 0 0 1-1v-5.75a1 1 0 0 0-1-1h-5.75a1 1 0 0 0-1 1V39a1 1 0 0 0 1 1zm1-5.75h3.75V38h-3.75zM49.81 40h5.75a1 1 0 0 0 1-1v-5.75a1 1 0 0 0-1-1h-5.75a1 1 0 0 0-1 1V39a1 1 0 0 0 1 1zm1-5.75h3.75V38h-3.75zM59.17 40h5.75a1 1 0 0 0 1-1v-5.75a1 1 0 0 0-1-1h-5.75a1 1 0 0 0-1 1V39a1 1 0 0 0 1 1zm1-5.75h3.75V38h-3.75zM29.73 84.46h-4.46a1 1 0 0 0-1 1v4.45a1 1 0 0 0 1 1h4.46a1 1 0 0 0 1-1v-4.45a1 1 0 0 0-1-1zm-1 4.45h-2.46v-2.45h2.46zM19.73 84.46h-4.46a1 1 0 0 0-1 1v4.45a1 1 0 0 0 1 1h4.46a1 1 0 0 0 1-1v-4.45a1 1 0 0 0-1-1zm-1 4.45h-2.46v-2.45h2.46zM80.73 84.46h-4.46a1 1 0 0 0-1 1v4.45a1 1 0 0 0 1 1h4.46a1 1 0 0 0 1-1v-4.45a1 1 0 0 0-1-1zm-1 4.45h-2.46v-2.45h2.46zM70.73 84.46h-4.46a1 1 0 0 0-1 1v4.45a1 1 0 0 0 1 1h4.46a1 1 0 0 0 1-1v-4.45a1 1 0 0 0-1-1zm-1 4.45h-2.46v-2.45h2.46z" fill="#a8a200" opacity="1" data-original="#000000" class=""></path></g></g></svg>