<svg xmlns="http://www.w3.org/2000/svg" version="1.1" xmlns:xlink="http://www.w3.org/1999/xlink" width="512" height="512" x="0" y="0" viewBox="0 0 128 128" style="enable-background:new 0 0 512 512" xml:space="preserve" class=""><g><path d="M33.147 57.15a8.15 8.15 0 0 0 6.487.335 8.719 8.719 0 0 0 4.99-4.83l.786-1.84a9.328 9.328 0 0 0-4.21-11.964 8.153 8.153 0 0 0-6.488-.335 8.717 8.717 0 0 0-4.99 4.83l-.785 1.838a9.329 9.329 0 0 0 4.21 11.966Zm-.533-10.394.786-1.839a4.755 4.755 0 0 1 2.703-2.65 4.186 4.186 0 0 1 3.334.174 5.283 5.283 0 0 1 2.296 6.803l-.787 1.838a4.757 4.757 0 0 1-2.703 2.652 4.194 4.194 0 0 1-3.333-.174 5.283 5.283 0 0 1-2.296-6.804Z" fill="#000000" opacity="1" data-original="#000000" class=""></path><path d="M7.286 127a7.17 7.17 0 0 0 7.094-5.355l6.774-26.134 7.07 5.616 2.294 21.266a1.933 1.933 0 0 0 .064.332 7.434 7.434 0 0 0 12.911 2.426 6.922 6.922 0 0 0 1.344-5.792l-2.044-21.376a10.55 10.55 0 0 0-3.45-6.812l-10.268-9.306 2.872-5.183 9.131 3.862a5.697 5.697 0 0 0 4.461.006 5.877 5.877 0 0 0 3.207-3.301A6.06 6.06 0 0 0 49.087 76h12.912a2 2 0 1 0 0-4h-1v-1a9.01 9.01 0 0 0-7-8.768V61a2 2 0 0 0-4 0v1.233a9.01 9.01 0 0 0-6.636 6.305l-5.629-2.38a6.754 6.754 0 0 0 .535-4.258 11.703 11.703 0 0 1-4.37-.25 2.803 2.803 0 0 1 .167 2.955l-8.149-3.447a2 2 0 1 0-1.559 3.684l19.637 8.306a2.039 2.039 0 0 1 1.03 2.634 1.913 1.913 0 0 1-1.035 1.08 1.724 1.724 0 0 1-1.353-.002l-18.685-7.903a2 2 0 1 0-1.559 3.683l5.85 2.475-3.434 6.198a2 2 0 0 0 .406 2.452l11.443 10.37a6.556 6.556 0 0 1 2.153 4.23l2.056 21.505a2.1 2.1 0 0 0 .048.28 2.91 2.91 0 0 1-.565 2.528 3.39 3.39 0 0 1-2.692 1.273 3.329 3.329 0 0 1-3.184-2.178L32.11 99.867a2 2 0 0 0-.744-1.352l-9.868-7.84a1.99 1.99 0 0 0-.508-.403l-9.933-7.891a5.258 5.258 0 0 1-1.353-6.777l11.6-20.09a3.162 3.162 0 0 1 2.26-1.519 3.364 3.364 0 0 1 1.721.185 13.703 13.703 0 0 1-1.044-4.217 7.541 7.541 0 0 0-1.316.083 7.146 7.146 0 0 0-5.085 3.468l-11.6 20.09a9.181 9.181 0 0 0 .74 10.299L.133 118.749a6.675 6.675 0 0 0 1.398 5.572A7.377 7.377 0 0 0 7.286 127Zm44.713-61a5.006 5.006 0 0 1 5 5v1h-8.63a5.956 5.956 0 0 0-1.309-1.603A4.99 4.99 0 0 1 52 66ZM4.056 119.534l6.391-32.529 7.282 5.785-7.23 27.887A3.24 3.24 0 0 1 7.286 123a3.396 3.396 0 0 1-2.656-1.209 2.663 2.663 0 0 1-.574-2.257Z" fill="#000000" opacity="1" data-original="#000000" class=""></path><path d="M124 87v-7.183c0-7.22-4.767-12.205-12-12.761v-1.412A8.953 8.953 0 0 0 114 60v-4a9 9 0 0 0-18 0v4a8.953 8.953 0 0 0 2 5.644v1.412c-7.234.556-12 5.541-12 12.761V87h-9v-2.295A7.01 7.01 0 0 0 82 78v-7a2 2 0 0 0-2-2H70a2 2 0 0 0-2 2v7a7.01 7.01 0 0 0 5 6.705V87H48a4.004 4.004 0 0 0-4 4v6a4.004 4.004 0 0 0 4 4h2v25a2 2 0 0 0 4 0v-5.333h63V126a2 2 0 0 0 4 0v-25h3a4.004 4.004 0 0 0 4-4v-6a4.004 4.004 0 0 0-4-4Zm-24-31a5 5 0 0 1 10 0v4a5 5 0 0 1-10 0Zm8 12.475v2.4l-3 3.2-3-3.2v-2.4a8.833 8.833 0 0 0 6 0Zm-10 2.604v.588a1.998 1.998 0 0 0 .54 1.367l5 5.334a2 2 0 0 0 2.919 0l5-5.334a1.998 1.998 0 0 0 .54-1.367v-.588c3.4.362 6.672 2.133 7.677 6.088l-4.019.57a2.017 2.017 0 0 0-.362.086 5.998 5.998 0 0 0-4.073 5.682V87H98.777v-3.495a5.998 5.998 0 0 0-4.072-5.682 2.017 2.017 0 0 0-.363-.087l-4.019-.569c1.005-3.955 4.278-5.726 7.677-6.088Zm22 10.083V87h-4.777v-3.495a1.999 1.999 0 0 1 1.212-1.838Zm-30 0 3.564.505a1.999 1.999 0 0 1 1.213 1.838V87H90ZM72 78v-5h6v5a3 3 0 0 1-6 0Zm45 38.666H54V101h63ZM48 97v-6h76l.003 6ZM57 30h14a2 2 0 0 0 2-2v-2a9.01 9.01 0 0 0-7-8.768V2a2 2 0 0 0-4 0v15.232A9.01 9.01 0 0 0 55 26v2a2 2 0 0 0 2 2Zm7-9a5.006 5.006 0 0 1 5 5H59a5.006 5.006 0 0 1 5-5ZM79 20h14a2 2 0 0 0 2-2v-2a9.01 9.01 0 0 0-7-8.768V2a2 2 0 0 0-4 0v5.232A9.01 9.01 0 0 0 77 16v2a2 2 0 0 0 2 2Zm7-9a5.006 5.006 0 0 1 5 5H81a5.006 5.006 0 0 1 5-5ZM35 20h14a2 2 0 0 0 2-2v-2a9.01 9.01 0 0 0-7-8.768V2a2 2 0 0 0-4 0v5.232A9.01 9.01 0 0 0 33 16v2a2 2 0 0 0 2 2Zm7-9a5.006 5.006 0 0 1 5 5H37a5.006 5.006 0 0 1 5-5Z" fill="#000000" opacity="1" data-original="#000000" class=""></path></g></svg>