<svg xmlns="http://www.w3.org/2000/svg" version="1.1" xmlns:xlink="http://www.w3.org/1999/xlink" width="512" height="512" x="0" y="0" viewBox="0 0 64 64" style="enable-background:new 0 0 512 512" xml:space="preserve" class=""><g><path d="M53 20a9 9 0 1 0-9-9 9.01 9.01 0 0 0 9 9Zm0-16a7 7 0 1 1-7 7 7.008 7.008 0 0 1 7-7Z" fill="#000000" opacity="1" data-original="#000000" class=""></path><path d="M52 14a1 1 0 0 0 .707-.293l5-5-1.414-1.414L52 11.586l-2.293-2.293-1.414 1.414 3 3A1 1 0 0 0 52 14ZM61 56h-1V41a1 1 0 0 0-1-1H47v-1.76c.63-1.09 4.15-6.56 6.54-10.24H57a5 5 0 0 0 5-5 1 1 0 0 0-1-1H51a4.989 4.989 0 0 0-4.96 4.59l-3.26 3.99a7.979 7.979 0 0 0-3.48-1.53l-2.98-1a.97.97 0 0 0-.63.01l-.32-1.93A7.023 7.023 0 0 0 38.92 21H40a2.006 2.006 0 0 0 2-2v-1a2 2 0 0 0-1.62-1.96l1.33-1.33A1.033 1.033 0 0 0 42 14v-1a7.008 7.008 0 0 0-7-7h-6a7.008 7.008 0 0 0-7 7v1a1.033 1.033 0 0 0 .29.71l1.33 1.33A2 2 0 0 0 22 18v1a2.006 2.006 0 0 0 2 2h1.08a7.023 7.023 0 0 0 3.55 5.13l-.32 1.93a.97.97 0 0 0-.63-.01l-2.98 1a7.979 7.979 0 0 0-3.48 1.53l-3.26-3.99A4.989 4.989 0 0 0 13 22H3a1 1 0 0 0-1 1 5 5 0 0 0 5 5h3.45L17 38.29V40H5a1 1 0 0 0-1 1v15H3a1 1 0 0 0-1 1v4a1 1 0 0 0 1 1h58a1 1 0 0 0 1-1v-4a1 1 0 0 0-1-1ZM50 42h2v2h-2Zm-2 0v3a1 1 0 0 0 1 1h4a1 1 0 0 0 1-1v-3h4v14H44V42Zm3-18h8.83A3.014 3.014 0 0 1 57 26h-8.83A3.014 3.014 0 0 1 51 24Zm-11-5h-1v-1h1Zm-15 0h-1v-1h1Zm0-5v.59l-1-1V13a5 5 0 0 1 5-5h6a5 5 0 0 1 5 5v.59l-1 1V14a1 1 0 0 0-.76-.97l-8-2a.972.972 0 0 0-.69.08l-4 2A.977.977 0 0 0 25 14Zm2 6v-5.38l3.12-1.56L37 14.78V20a5 5 0 0 1-10 0Zm6.93 9.66L32 31.59l-1.93-1.93.47-2.82a6.741 6.741 0 0 0 2.92 0Zm-6.2.48 3.56 3.57a1.008 1.008 0 0 0 1.42 0l3.56-3.57 1.13.38L33.49 36h-2.98l-3.91-5.48ZM33.82 42l1.11 6.66L32 51.59l-2.93-2.93L30.18 42Zm-3.31-2 .34-2h2.3l.34 2ZM7 26a3.014 3.014 0 0 1-2.83-2H13a3.014 3.014 0 0 1 2.83 2Zm5.82 2h3.71l8.7 10.63 1.54-1.26-4.29-5.25a6.55 6.55 0 0 1 2.09-1.01l4.38 6.13-1.94 11.6a1.011 1.011 0 0 0 .28.87l4 4a1.014 1.014 0 0 0 1.42 0l4-4a1.011 1.011 0 0 0 .28-.87l-1.94-11.6 4.38-6.13a6.55 6.55 0 0 1 2.09 1.01l-4.29 5.25 1.54 1.26L47.47 28h3.69C45 37.49 45 37.64 45 38v2h-2a1 1 0 0 0-1 1v15H22V41a1 1 0 0 0-1-1h-2v-2a.949.949 0 0 0-.16-.54ZM12 42h2v2h-2Zm-6 0h4v3a1 1 0 0 0 1 1h4a1 1 0 0 0 1-1v-3h4v14H6Zm54 18H4v-2h56Z" fill="#000000" opacity="1" data-original="#000000" class=""></path><path d="M5 20h12a3 3 0 0 0 3-3V5a3 3 0 0 0-3-3H5a3 3 0 0 0-3 3v12a3 3 0 0 0 3 3ZM4 5a1 1 0 0 1 1-1h12a1 1 0 0 1 1 1v12a1 1 0 0 1-1 1H5a1 1 0 0 1-1-1Z" fill="#000000" opacity="1" data-original="#000000" class=""></path><path d="M6 6h2v2H6zM10 6h6v2h-6zM6 10h10v2H6zM6 14h10v2H6z" fill="#000000" opacity="1" data-original="#000000" class=""></path></g></svg>