<svg xmlns="http://www.w3.org/2000/svg" version="1.1" xmlns:xlink="http://www.w3.org/1999/xlink" width="512" height="512" x="0" y="0" viewBox="0 0 66 66" style="enable-background:new 0 0 512 512" xml:space="preserve" class=""><g><path d="M11.14 60.66H5.53c-1.31 0-2.37-1.06-2.37-2.37V10.78c0-1.31 1.06-2.38 2.37-2.38.4 0 .72-.32.72-.72s-.32-.72-.72-.72c-2.1 0-3.81 1.71-3.81 3.82v47.51c0 2.1 1.71 3.81 3.81 3.81h5.61c.4 0 .72-.32.72-.72s-.32-.72-.72-.72zM36.83 60.66h-3.29c-.4 0-.72.32-.72.72s.32.72.72.72h3.29c.4 0 .72-.32.72-.72s-.32-.72-.72-.72z" fill="#000000" opacity="1" data-original="#000000" class=""></path><path d="M10.77 56.81h.08c.36 0 .68-.27.72-.64.04-.4-.24-.75-.64-.79a2.362 2.362 0 0 1-2.11-2.35V5.51c0-1.31 1.06-2.37 2.37-2.37h34.44C46.94 3.14 48 4.2 48 5.51V16.1c0 .4.32.72.72.72s.72-.32.72-.72V5.51c0-2.1-1.71-3.81-3.81-3.81H11.18c-2.1 0-3.81 1.71-3.81 3.81v47.51a3.79 3.79 0 0 0 3.4 3.79zM36.83 55.39h-2.12c-.4 0-.72.32-.72.72s.32.72.72.72h2.12c.4 0 .72-.32.72-.72s-.32-.72-.72-.72z" fill="#000000" opacity="1" data-original="#000000" class=""></path><path d="M18.87 11.53h1.74v4.78c0 .4.32.72.72.72s.72-.32.72-.72v-4.78h1.74c.4 0 .72-.32.72-.72s-.32-.72-.72-.72h-4.93c-.4 0-.72.32-.72.72.01.4.33.72.73.72zM24.99 17.05c.35.18.79.04.97-.31l.64-1.25h3.28l.64 1.25a.719.719 0 0 0 .97.31c.36-.18.5-.62.31-.97l-2.92-5.69a.715.715 0 0 0-.64-.39c-.27 0-.52.15-.64.39l-2.93 5.69c-.17.35-.03.78.32.97zm3.25-4.76.9 1.75h-1.8zM33.46 16.67c.13.1.29.16.45.16.21 0 .42-.09.57-.27l1.45-1.83 1.45 1.83c.14.18.35.27.57.27.16 0 .31-.05.45-.16.31-.25.37-.7.12-1.01l-1.66-2.09 1.66-2.09c.25-.31.19-.77-.12-1.01a.717.717 0 0 0-1.01.12l-1.45 1.83-1.45-1.83c-.25-.31-.7-.37-1.01-.12s-.37.7-.12 1.01L35 13.56l-1.66 2.09c-.25.32-.2.77.12 1.02z" fill="#000000" opacity="1" data-original="#000000" class=""></path><path d="M42.92 20.57c1.21 0 2.2-.98 2.2-2.19V8.74c0-1.21-.98-2.19-2.2-2.19H13.88c-1.21 0-2.2.98-2.2 2.19v9.64c0 1.21.98 2.19 2.2 2.19zm-29.8-2.19V8.74c0-.41.34-.75.75-.75h29.04c.42 0 .75.34.75.75v9.64c0 .41-.34.75-.75.75H13.88c-.42 0-.76-.34-.76-.75zM40.55 25.22H22.6c-.4 0-.72.32-.72.72s.32.72.72.72h17.95c.4 0 .72-.32.72-.72s-.32-.72-.72-.72zM41.27 30.94c0-.4-.32-.72-.72-.72H13.36c-.4 0-.72.32-.72.72s.32.72.72.72h27.19c.4 0 .72-.32.72-.72zM33.31 35.22H13.36c-.4 0-.72.32-.72.72s.32.72.72.72h19.95c.4 0 .72-.32.72-.72s-.32-.72-.72-.72zM33.31 40.22H13.36c-.4 0-.72.32-.72.72s.32.72.72.72h19.95c.4 0 .72-.32.72-.72s-.32-.72-.72-.72zM61.83 35.04h-12.4v-2.66c0-.4-.32-.72-.72-.72s-.72.32-.72.72v2.66h-6.03c-1.35 0-2.45 1.1-2.45 2.45v24.36c0 1.35 1.1 2.45 2.45 2.45h19.88c1.35 0 2.45-1.1 2.45-2.45V37.49a2.469 2.469 0 0 0-2.46-2.45zm1.01 26.81c0 .55-.45 1-1.01 1H41.96c-.55 0-1.01-.45-1.01-1V37.49c0-.55.45-1 1.01-1h19.88c.55 0 1.01.45 1.01 1v24.36z" fill="#000000" opacity="1" data-original="#000000" class=""></path><path d="M58.8 38.93H45c-.75 0-1.36.61-1.36 1.36v4.16c0 .75.61 1.36 1.36 1.36h13.8c.75 0 1.36-.61 1.36-1.36v-4.16c0-.75-.61-1.36-1.36-1.36zm-.08 5.44H45.08v-4h13.64zM46.79 48.16h-2.14c-.4 0-.72.32-.72.72s.32.72.72.72h2.14c.4 0 .72-.32.72-.72s-.32-.72-.72-.72zM52.96 48.16h-2.14c-.4 0-.72.32-.72.72s.32.72.72.72h2.14c.4 0 .72-.32.72-.72s-.32-.72-.72-.72zM59.14 48.16H57c-.4 0-.72.32-.72.72s.32.72.72.72h2.14c.4 0 .72-.32.72-.72s-.32-.72-.72-.72zM46.79 51.65h-2.14c-.4 0-.72.32-.72.72s.32.72.72.72h2.14c.4 0 .72-.32.72-.72s-.32-.72-.72-.72zM52.96 51.65h-2.14c-.4 0-.72.32-.72.72s.32.72.72.72h2.14c.4 0 .72-.32.72-.72s-.32-.72-.72-.72zM59.14 51.65H57c-.4 0-.72.32-.72.72s.32.72.72.72h2.14c.4 0 .72-.32.72-.72s-.32-.72-.72-.72zM46.79 55.15h-2.14c-.4 0-.72.32-.72.72s.32.72.72.72h2.14c.4 0 .72-.32.72-.72s-.32-.72-.72-.72zM52.96 55.15h-2.14c-.4 0-.72.32-.72.72s.32.72.72.72h2.14c.4 0 .72-.32.72-.72a.71.71 0 0 0-.72-.72zM59.14 55.15H57c-.4 0-.72.32-.72.72s.32.72.72.72h2.14c.4 0 .72-.32.72-.72s-.32-.72-.72-.72zM46.79 58.64h-2.14c-.4 0-.72.32-.72.72s.32.72.72.72h2.14c.4 0 .72-.32.72-.72s-.32-.72-.72-.72zM52.96 58.64h-2.14c-.4 0-.72.32-.72.72s.32.72.72.72h2.14c.4 0 .72-.32.72-.72s-.32-.72-.72-.72zM59.14 58.64H57c-.4 0-.72.32-.72.72s.32.72.72.72h2.14c.4 0 .72-.32.72-.72s-.32-.72-.72-.72zM44.37 25.35l-.95 5.77c-.05.33.07.67.32.89.18.15.4.23.63.23.1 0 .2-.02.3-.05l5.57-1.78c.58-.19 1.1-.53 1.5-.99L62.56 16.9c.76-.88 1.14-2.01 1.05-3.18s-.63-2.23-1.5-2.98c-1.82-1.57-4.59-1.37-6.16.45L45.13 23.72c-.4.46-.66 1.03-.76 1.63zm.6 5.23.82-5c.01-.09.05-.17.08-.26l4.17 3.61c-.08.04-.16.09-.25.12zm9.97-16.01 4.43 3.82-8.25 9.54-4.43-3.82zm2.1-2.43c.58-.67 1.39-1.01 2.22-1.01.68 0 1.36.23 1.91.71.59.51.94 1.22 1.01 2 .06.78-.19 1.53-.71 2.12l-1.16 1.35-4.43-3.82zM22.92 43.74c-5.67 0-10.28 4.61-10.28 10.28S17.25 64.3 22.92 64.3 33.2 59.69 33.2 54.02s-4.61-10.28-10.28-10.28zm0 19.12c-4.87 0-8.84-3.96-8.84-8.84s3.96-8.84 8.84-8.84 8.84 3.96 8.84 8.84-3.97 8.84-8.84 8.84z" fill="#000000" opacity="1" data-original="#000000" class=""></path><path d="M22.87 50.6c.02 0 .03.01.05.01s.03-.01.05-.01c.72.03 1.31.62 1.31 1.35 0 .4.32.72.72.72s.72-.32.72-.72c0-1.29-.88-2.37-2.08-2.69v-.62c0-.4-.32-.72-.72-.72s-.72.32-.72.72v.62a2.79 2.79 0 0 0-2.07 2.69 2.8 2.8 0 0 0 2.8 2.79 1.356 1.356 0 0 1 .04 2.71c-.02 0-.03-.01-.05-.01s-.03.01-.05.01c-.72-.03-1.31-.62-1.31-1.35 0-.4-.32-.72-.72-.72s-.72.32-.72.72c0 1.29.88 2.37 2.07 2.69v.62c0 .4.32.72.72.72s.72-.32.72-.72v-.62c1.19-.32 2.08-1.4 2.08-2.69a2.8 2.8 0 0 0-2.79-2.8c-.75 0-1.36-.61-1.36-1.35.01-.73.59-1.33 1.31-1.35z" fill="#000000" opacity="1" data-original="#000000" class=""></path></g></svg>